HIERARCHY
ROOT SpineBase
{
  OFFSET 0.000000 0.000000 0.000000
  CHANNELS 6 Xposition Yposition Zposition Zrotation Xrotation Yrotation
  JOINT SpineMid
  {
    OFFSET 0.000000 34.241135 0.000000
    CHANNELS 3 Zrotation Xrotation Yrotation
    JOINT SpineShoulder
    {
      OFFSET -0.209097 25.414732 -0.926303
      CHANNELS 3 Zrotation Xrotation Yrotation
      JOINT Neck
      {
        OFFSET -0.151887 8.398590 -0.677775
        CHANNELS 3 Zrotation Xrotation Yrotation
        JOINT Head
        {
          OFFSET -0.037076 12.873677 5.680698
          CHANNELS 3 Zrotation Xrotation Yrotation
          End Site
          {
            OFFSET 0 0 0
          }
        }
      }
      JOINT ShoulderLeft
      {
        OFFSET -14.963628 -9.748192 -6.587065
        CHANNELS 3 Zrotation Xrotation Yrotation
        JOINT ElbowLeft
        {
          OFFSET -4.590296 -27.329420 1.963207
          CHANNELS 3 Zrotation Xrotation Yrotation
          JOINT WristLeft
          {
            OFFSET -2.685123 -22.373875 6.376379
            CHANNELS 3 Zrotation Xrotation Yrotation
            JOINT HandLeft
            {
              OFFSET 0.746447 -5.979975 0.777350
              CHANNELS 3 Zrotation Xrotation Yrotation
              JOINT HandTipLeft
              {
                OFFSET -0.613914 -6.330531 2.189238
                CHANNELS 3 Zrotation Xrotation Yrotation
                End Site
                {
                  OFFSET 0 0 0
                }
              }
              JOINT ThumbLeft
              {
                OFFSET -2.869598 2.673770 -0.497997
                CHANNELS 3 Zrotation Xrotation Yrotation
                End Site
                {
                  OFFSET 0 0 0
                }
              }
            }
          }
        }
      }
      JOINT ShoulderRight
      {
        OFFSET 13.840449 -7.633636 -5.904682
        CHANNELS 3 Zrotation Xrotation Yrotation
        JOINT ElbowRight
        {
          OFFSET 8.498588 -27.678577 2.512889
          CHANNELS 3 Zrotation Xrotation Yrotation
          JOINT WristRight
          {
            OFFSET 1.981276 -22.955361 5.940994
            CHANNELS 3 Zrotation Xrotation Yrotation
            JOINT HandRight
            {
              OFFSET -5.287089 -2.949487 -4.360436
              CHANNELS 3 Zrotation Xrotation Yrotation
              JOINT HandTipRight
              {
                OFFSET -3.515135 -10.959908 -2.797108
                CHANNELS 3 Zrotation Xrotation Yrotation
                End Site
                {
                  OFFSET 0 0 0
                }
              }
              JOINT ThumbRight
              {
                OFFSET -3.775198 -0.835520 -6.283472
                CHANNELS 3 Zrotation Xrotation Yrotation
                End Site
                {
                  OFFSET 0 0 0
                }
              }
            }
          }
        }
      }
    }
  }
  JOINT HipLeft
  {
    OFFSET -6.916946 1.214920 -3.698632
    CHANNELS 3 Zrotation Xrotation Yrotation
    JOINT KneeLeft
    {
      OFFSET 1.357267 -48.152453 1.894591
      CHANNELS 3 Zrotation Xrotation Yrotation
      JOINT AnkleLeft
      {
        OFFSET -1.162626 -34.864545 -1.099769
        CHANNELS 3 Zrotation Xrotation Yrotation
        JOINT FootLeft
        {
          OFFSET -3.620032 -5.040541 -10.558199
          CHANNELS 3 Zrotation Xrotation Yrotation
          End Site
          {
            OFFSET 0 0 0
          }
        }
      }
    }
  }
  JOINT HipRight
  {
    OFFSET 5.346018 1.923501 -3.430462
    CHANNELS 3 Zrotation Xrotation Yrotation
    JOINT KneeRight
    {
      OFFSET 4.155916 -51.812326 1.794577
      CHANNELS 3 Zrotation Xrotation Yrotation
      JOINT AnkleRight
      {
        OFFSET 1.545375 -31.534630 -3.574034
        CHANNELS 3 Zrotation Xrotation Yrotation
        JOINT FootRight
        {
          OFFSET -1.991048 -4.920953 -10.693776
          CHANNELS 3 Zrotation Xrotation Yrotation
          End Site
          {
            OFFSET 0 0 0
          }
        }
      }
    }
  }
}
MOTION
Frames: 5
Frame Time: 0.033333
50.554578 88.641165 230.527378 -0.000000 0.000000 -1.252762 0.000000 0.000000 1.252762 -0.000000 0.000000 0.000000 -0.000000 0.000000 0.000000 0.000000 0.000000 0.000000 -0.000000 0.000000 0.000000 -0.000000 0.000000 0.000000 -0.000000 0.000000 0.000000 -0.000000 0.000000 0.000000 0.000000 0.000000 0.000000 0.000000 0.000000 0.000000 -0.000000 0.000000 0.000000 -0.000000 0.000000 0.000000 -0.000000 0.000000 0.000000 -0.000000 0.000000 0.000000 0.000000 0.000000 0.000000 0.000000 0.000000 0.000000 0.000000 0.000000 1.252762 -0.000000 0.000000 0.000000 -0.000000 0.000000 0.000000 0.000000 0.000000 0.000000 0.000000 0.000000 1.252762 -0.000000 0.000000 0.000000 -0.000000 0.000000 0.000000 0.000000 0.000000 0.000000
50.544633 88.655005 230.687635 -0.018964 0.082295 -1.211022 0.020699 -0.081876 1.211051 -0.000000 0.000000 0.000000 -0.000000 0.000000 0.000000 0.000000 0.000000 0.000000 -0.000000 0.000000 0.000000 -0.000000 0.000000 0.000000 0.484683 0.943028 0.176828 -0.487657 -0.941494 -0.184823 0.000000 0.000000 0.000000 0.000000 0.000000 0.000000 -0.000000 0.000000 0.000000 -0.000000 0.000000 0.000000 -0.000000 0.000000 0.000000 -0.000000 0.000000 0.000000 0.000000 0.000000 0.000000 0.000000 0.000000 0.000000 0.020699 -0.081876 1.211051 -0.000000 0.000000 0.000000 1.405633 -1.784074 -1.711978 0.000000 0.000000 0.000000 0.020699 -0.081876 1.211051 -0.000000 0.000000 0.000000 0.440768 1.732627 -1.614929 0.000000 0.000000 0.000000
50.540535 88.666185 230.839547 -0.035346 0.153977 -1.153029 0.038437 -0.153235 1.153128 -0.000000 0.000000 0.000000 -0.000000 0.000000 0.000000 0.000000 0.000000 0.000000 -0.000000 0.000000 0.000000 -0.000000 0.000000 0.000000 0.634572 1.765130 0.293448 -0.946939 -0.380222 -0.560969 0.000000 0.000000 0.000000 0.000000 0.000000 0.000000 -0.000000 0.000000 0.000000 -0.799056 1.068462 -0.107456 1.602634 -1.189731 -0.836280 -1.370005 0.968141 0.844010 0.000000 0.000000 0.000000 0.000000 0.000000 0.000000 0.038437 -0.153235 1.153128 -0.000000 0.000000 0.000000 2.567719 -3.457462 -3.060073 0.000000 0.000000 0.000000 0.038437 -0.153235 1.153128 -0.000000 0.000000 0.000000 0.837936 3.320720 -3.007904 0.000000 0.000000 0.000000
50.542283 88.674707 230.983116 -0.049140 0.215030 -1.078557 0.053180 -0.214067 1.078749 -0.000000 0.000000 0.000000 -0.000000 0.000000 0.000000 0.000000 0.000000 0.000000 -0.000000 0.000000 0.000000 0.506805 0.899778 0.032561 -0.104645 1.530973 0.313676 -0.848939 -0.660285 -0.703214 0.000000 0.000000 0.000000 0.000000 0.000000 0.000000 0.225506 -0.773266 -0.215174 -1.328985 2.275695 0.093822 2.232679 -1.720945 -1.107873 -2.015444 1.465335 1.125891 0.000000 0.000000 0.000000 0.000000 0.000000 0.000000 0.053180 -0.214067 1.078749 -0.000000 0.000000 0.000000 3.449552 -4.928280 -3.981277 0.000000 0.000000 0.000000 0.053180 -0.214067 1.078749 -0.000000 0.000000 0.000000 1.184231 4.779358 -4.193094 0.000000 0.000000 0.000000
50.549877 88.680570 231.118340 -0.060346 0.265443 -0.987385 0.064912 -0.264364 0.987675 -0.000000 0.000000 0.000000 -0.000000 0.000000 0.000000 0.000000 0.000000 0.000000 -0.209946 -0.867800 0.128979 0.976150 1.946726 -0.063420 -1.014754 1.826229 0.237569 -0.304635 -1.001894 -0.721674 0.000000 0.000000 0.000000 0.000000 0.000000 0.000000 0.164307 -0.986054 -0.286090 -1.500247 2.861603 0.153588 2.753754 -2.208607 -1.294589 -2.636282 1.972122 1.323941 0.000000 0.000000 0.000000 0.000000 0.000000 0.000000 0.064912 -0.264364 0.987675 -0.061061 0.855331 -0.026135 4.099645 -6.969356 -4.346928 0.000000 0.000000 0.000000 0.064912 -0.264364 0.987675 -0.000000 0.000000 0.000000 1.474582 6.122944 -5.183786 0.000000 0.000000 0.000000
